<svg width="127" height="142" viewBox="0 0 127 142" fill="none" xmlns="http://www.w3.org/2000/svg">
<path fill-rule="evenodd" clip-rule="evenodd" d="M30.291 137.254C33.2873 134.551 38.698 127.081 40.144 123.649C41.1283 121.315 41.1598 120.839 40.3393 120.725C37.9618 120.396 35.9821 119.744 35.3269 119.076C34.9373 118.679 34.2329 117.955 33.7607 117.468C32.921 116.6 32.8671 116.66 31.111 120.399C30.1253 122.498 28.9325 126.132 28.4604 128.474C27.4859 133.31 27.0848 138.69 27.6737 139.03C27.8912 139.155 29.0693 138.356 30.291 137.254ZM54.4505 140.885C61.0547 138.713 65.9681 134.842 70.6446 128.129C73.0106 124.731 73.078 124.547 72.0096 124.404C69.5148 124.07 65.8668 123.103 64.8165 122.496C64.2034 122.142 63.6502 121.943 63.5872 122.052C63.5239 122.162 63.0395 123.804 62.5103 125.703C61.28 130.116 58.153 134.696 53.672 138.645C51.8626 140.24 50.4201 141.685 50.4663 141.857C50.5121 142.028 52.3051 141.591 54.4505 140.885ZM9.90278 117.007C10.5389 108.608 11.4131 104.979 14.0415 99.8295L15.7876 96.4094L13.7244 94.7903C12.5892 93.9001 11.1538 92.2764 10.5343 91.1825L9.40787 89.1941L8.48055 91.5545C6.19993 97.3606 5.78797 103.789 7.2941 110.084C8.19992 113.87 9.81561 118.158 9.90278 117.007ZM39.1082 117.768C41.8573 118.407 46.3586 117.264 49.15 115.22C54.2008 111.52 59.2584 101.625 59.658 94.6611C60.261 84.1482 51.3852 79.1376 42.9941 85.2528C33.9645 91.8342 28.9514 105.531 32.8974 112.841C34.1244 115.115 36.7903 117.23 39.1082 117.768ZM20.527 94.5345C24.6123 94.7259 29.5813 92.4918 33.9479 88.4997C43.8975 79.4024 44.9021 63.231 35.6376 61.2982C32.6756 60.6806 28.0623 61.7883 24.8482 63.8899C13.0875 71.5777 7.98939 83.526 13.3046 90.9426C15.2415 93.6445 16.6663 94.3532 20.527 94.5345ZM86.4076 129.557C93.0963 127.357 98.703 122.799 102.225 116.698C104 113.625 104.033 113.461 102.823 113.783C101.123 114.236 97.9988 113.804 96.431 112.899L95.1699 112.171L93.7692 115.336C92.0961 119.116 87.3278 125.563 84.1207 128.381C82.8499 129.496 81.9749 130.504 82.1749 130.619C82.3753 130.735 84.2802 130.257 86.4076 129.557ZM69.1497 121.853C71.3979 122.17 76.612 119.986 79.1442 117.666C83.5919 113.592 87.0073 106.276 87.3706 100.047C87.5874 96.3222 85.9418 91.2762 83.8162 89.1483C75.2997 80.6228 60.3854 97.9046 62.3509 114.021C62.8088 117.773 65.9595 121.403 69.1497 121.853ZM3.20965 81.5007C3.28584 81.3687 3.40089 80.2173 3.46612 78.9422C3.68775 74.5717 5.3268 69.922 8.35666 65.0688L11.1957 60.522L9.85478 59.7484C8.23013 58.8111 7.25454 57.3718 6.42285 54.6838L5.79632 52.6587L4.07825 56.414C0.664754 63.8744 -0.606798 70.4383 0.39572 75.4251C0.849526 77.6834 2.88103 82.0699 3.20965 81.5007ZM100.876 111.684C104.653 112.523 107.663 110.521 110.84 105.052C113.363 100.708 114.718 96.3468 115.167 91.118C115.741 84.4343 114.036 80.0084 110.004 77.7073C103.545 74.022 96.4816 77.6066 93.1837 86.2433C89.24 96.5713 93.301 110.002 100.876 111.684ZM13.5628 58.777C21.5601 61.0719 31.1116 54.155 34.2223 43.8152C34.8383 41.7687 35.3533 38.9747 35.3674 37.6067C35.414 33.1326 31.6619 29.2713 27.1038 29.1026C19.2396 28.8112 8.63 39.4783 7.78393 48.5267C7.29119 53.8021 9.42661 57.5897 13.5628 58.777ZM63.2248 82.5495C63.8128 82.7403 65.8375 83.1915 67.7241 83.5521C74.9124 84.9261 79.6367 83.3951 83.8468 78.3272C88.5333 72.686 92.9998 71.2024 103.425 71.8248C110.439 72.243 115.4 71.3721 119.28 69.0396C123.233 66.6645 125.917 62.1441 126.1 57.554C126.367 50.8898 123.065 43.7167 116.705 37.1465C114.092 34.4474 112.382 33.209 106.878 30.0286C99.5539 25.7969 94.9553 24.0603 85.7895 22.0643C80.9559 21.0117 80.015 20.6261 76.2794 18.1699C73.4397 16.3026 70.9085 14.1031 68.2435 11.1878C60.0205 2.19242 51.933 -1.16222 43 0.716374C37.8211 1.80574 35.0293 3.84862 32.3293 8.52512C30.3647 11.9279 30.1362 12.6689 30.29 15.1357C30.3895 16.7281 31.2277 19.354 32.2545 21.2874C33.2398 23.1431 35.0378 26.5156 36.2509 28.7825C39.6712 35.1747 41.0685 41.2609 40.6687 48.0257C40.4819 51.1858 40.6066 55.2511 40.9451 57.0594C42.1571 63.5337 46.7906 71.3339 52.176 75.968C54.328 77.8193 61.1243 81.8679 63.2248 82.5495Z" fill="#184066"/>
</svg>
