<svg width="136" height="135" viewBox="0 0 136 135" fill="none" xmlns="http://www.w3.org/2000/svg">
<path fill-rule="evenodd" clip-rule="evenodd" d="M113.444 126.41C112.602 122.464 108.837 114.043 106.589 111.075C105.06 109.056 104.663 108.79 104.154 109.444C102.68 111.338 101.126 112.727 100.22 112.96C99.6812 113.099 98.7022 113.347 98.0441 113.513C96.8729 113.806 96.8973 113.882 99.2579 117.273C100.583 119.176 103.133 122.026 104.925 123.606C108.626 126.868 113.085 129.905 113.674 129.565C113.891 129.439 113.788 128.02 113.444 126.41ZM128.669 107.303C130.09 100.498 129.194 94.307 125.718 86.9004C123.959 83.1525 123.833 83.0022 123.176 83.8561C121.639 85.8497 118.977 88.5252 117.927 89.1315C117.314 89.4856 116.864 89.8647 116.927 89.9739C116.99 90.0836 118.171 91.3244 119.55 92.7319C122.757 96.0042 125.16 101.002 126.34 106.857C126.816 109.222 127.346 111.194 127.518 111.239C127.689 111.285 128.207 109.514 128.669 107.303ZM85.7163 133.944C78.7598 129.193 76.0545 126.622 72.9091 121.771L70.8203 118.548L68.3865 119.526C67.0479 120.064 64.9241 120.495 63.667 120.484L61.3818 120.466L62.9623 122.449C66.8502 127.327 72.2114 130.898 78.4159 132.741C82.148 133.85 86.669 134.594 85.7163 133.944ZM100.978 109.031C102.905 106.97 104.167 102.5 103.792 99.0609C103.113 92.8369 97.0721 83.5091 91.2414 79.6813C82.4384 73.9026 73.6613 79.0841 74.7617 89.4085C75.9465 100.519 85.3013 111.709 93.6058 111.947C96.1884 112.021 99.3525 110.77 100.978 109.031ZM71.5663 113.506C73.7747 110.064 74.3244 104.644 73.0504 98.8662C70.1467 85.7009 56.6442 76.7452 50.3381 83.8022C48.3222 86.0585 46.9749 90.6076 47.1879 94.4419C47.9654 108.471 55.7638 118.86 64.8443 117.965C68.1528 117.639 69.4789 116.759 71.5663 113.506ZM134.837 73.9635C136.276 67.0708 135.132 59.9363 131.61 53.8357C129.835 50.7623 129.71 50.6513 129.384 51.8604C128.926 53.559 126.99 56.0486 125.422 56.9537L124.161 57.6818L126.202 60.4774C128.639 63.8167 131.838 71.1697 132.675 75.3557C133.006 77.0141 133.441 78.2757 133.641 78.1603C133.841 78.0445 134.379 76.1557 134.837 73.9635ZM119.536 85.0572C120.935 83.2687 121.651 77.6612 120.907 74.3083C119.603 68.4192 114.974 61.8033 109.762 58.3743C106.645 56.3243 101.452 55.2265 98.5463 56.0033C86.9047 59.1161 94.4141 80.6732 109.354 87.0292C112.832 88.5086 117.551 87.595 119.536 85.0572ZM51.62 121.987C51.5438 121.855 50.6042 121.179 49.5325 120.485C45.8583 118.108 42.6511 114.364 39.9631 109.313L37.4449 104.581L36.1045 105.356C34.4804 106.294 32.7462 106.419 30.0025 105.796L27.9354 105.326L30.3285 108.691C35.0827 115.378 40.1314 119.761 44.9514 121.386C47.1341 122.122 51.9486 122.556 51.62 121.987ZM126.593 52.497C129.208 49.6452 128.978 46.0377 125.831 40.5519C123.331 36.1946 120.231 32.8409 115.927 29.8379C110.426 25.999 105.741 25.2618 101.732 27.6037C95.3108 31.3546 94.8835 39.2639 100.714 46.4383C107.687 55.0176 121.348 58.2159 126.593 52.497ZM37.1173 101.659C43.1033 95.8804 41.8889 84.1502 34.4897 76.2863C33.0254 74.7296 30.8632 72.8866 29.6855 72.1904C25.8341 69.913 20.6141 71.2318 18.189 75.0948C14.0046 81.7597 17.9377 96.2814 25.3508 101.538C29.6731 104.603 34.0209 104.647 37.1173 101.659ZM82.5358 70.5366C82.9951 70.1227 84.3982 68.5949 85.6538 67.1414C90.4379 61.6031 91.4741 56.7463 89.1902 50.5662C86.648 43.687 87.5964 39.0771 93.3482 30.3597C97.2174 24.4945 98.9435 19.7628 98.8636 15.2364C98.7831 10.6255 96.2103 6.04077 92.3269 3.58692C86.6889 0.0237198 78.8256 -0.702643 69.9557 1.52005C66.3118 2.43322 64.3844 3.29474 58.878 6.47138C51.5512 10.6983 47.7479 13.8126 41.4364 20.7524C38.1081 24.4121 37.3037 25.0341 33.3088 27.0412C30.2718 28.5667 27.1014 29.6591 23.2442 30.5094C11.3424 33.1331 4.39345 38.4597 1.5539 47.1352C-0.0921771 52.165 0.28112 55.6042 2.9811 60.2807C4.94571 63.6835 5.47315 64.2518 7.68641 65.352C9.11516 66.0621 11.8084 66.6491 13.9962 66.7266C16.0959 66.8012 19.9156 66.9302 22.4854 67.0131C29.7312 67.2472 35.7007 69.0802 41.3593 72.8088C44.0026 74.5506 47.5857 76.4753 49.3209 77.0863C55.5338 79.2738 64.6057 79.1612 71.3117 76.8143C73.991 75.8764 80.8953 72.0149 82.5358 70.5366Z" fill="#184066"/>
</svg>
