<svg width="364" height="1502" viewBox="0 0 364 1502" fill="none" xmlns="http://www.w3.org/2000/svg">
<path fill-rule="evenodd" clip-rule="evenodd" d="M139.891 35.1371C140.734 39.0833 144.498 47.5044 146.747 50.4724C148.276 52.4917 148.673 52.7574 149.181 52.1036C150.655 50.2094 152.209 48.8205 153.116 48.5872C153.654 48.4483 154.633 48.2002 155.291 48.0349C156.463 47.7416 156.438 47.6652 154.078 44.2745C152.753 42.3714 150.202 39.5215 148.41 37.9419C144.709 34.6797 140.251 31.6425 139.662 31.9825C139.444 32.1081 139.547 33.5278 139.891 35.1371ZM124.667 54.2442C123.246 61.0498 124.141 67.2403 127.617 74.647C129.377 78.3949 129.502 78.5452 130.16 77.6913C131.697 75.6977 134.358 73.0222 135.409 72.4158C136.022 72.0618 136.471 71.6826 136.408 71.5735C136.345 71.4638 135.165 70.223 133.785 68.8155C130.578 65.5432 128.176 60.5455 126.996 54.6901C126.519 52.3257 125.989 50.3538 125.817 50.3081C125.646 50.262 125.128 52.0333 124.667 54.2442ZM167.619 27.6036C174.576 32.3545 177.281 34.9258 180.426 39.7768L182.515 42.999L184.949 42.0218C186.288 41.4838 188.411 41.0526 189.668 41.063L191.954 41.0817L190.373 39.0984C186.485 34.2203 181.124 30.6493 174.92 28.8063C171.187 27.6975 166.666 26.9529 167.619 27.6036ZM152.358 52.516C150.43 54.5773 149.169 59.0469 149.544 62.4865C150.222 68.7105 156.263 78.0382 162.094 81.8661C170.897 87.6447 179.674 82.4633 178.574 72.1388C177.389 61.0283 168.034 49.8387 159.73 49.6006C157.147 49.5263 153.983 50.7778 152.358 52.516ZM181.769 48.0409C179.561 51.4832 179.011 56.9035 180.285 62.6812C183.189 75.8465 196.691 84.8021 202.997 77.7452C205.013 75.4888 206.361 70.9398 206.148 67.1055C205.37 53.0766 197.572 42.6873 188.491 43.5821C185.183 43.9086 183.857 44.7881 181.769 48.0409ZM118.498 87.5839C117.059 94.4765 118.203 101.611 121.726 107.712C123.5 110.785 123.626 110.896 123.951 109.687C124.409 107.988 126.346 105.499 127.913 104.594L129.174 103.866L127.134 101.07C124.696 97.7307 121.497 90.3776 120.661 86.1917C120.33 84.5332 119.895 83.2717 119.695 83.3871C119.494 83.5028 118.956 85.3916 118.498 87.5839ZM133.799 76.4901C132.401 78.2787 131.685 83.8861 132.428 87.2391C133.733 93.1281 138.361 99.744 143.574 103.173C146.691 105.223 151.884 106.321 154.789 105.544C166.431 102.431 158.921 80.8742 143.981 74.5182C140.503 73.0388 135.784 73.9523 133.799 76.4901ZM201.715 39.5606C201.792 39.6925 202.731 40.3679 203.803 41.0619C207.477 43.4391 210.684 47.1834 213.372 52.234L215.891 56.966L217.231 56.1916C218.855 55.2532 220.589 55.128 223.333 55.7517L225.4 56.2217L223.007 52.8562C218.253 46.1698 213.204 41.7866 208.384 40.1615C206.201 39.4253 201.387 38.9914 201.715 39.5606ZM126.742 109.05C124.127 111.902 124.357 115.51 127.505 120.996C130.004 125.353 133.104 128.707 137.408 131.709C142.91 135.548 147.594 136.286 151.604 133.944C158.025 130.193 158.452 122.283 152.621 115.109C145.649 106.53 131.987 103.332 126.742 109.05ZM216.218 59.8885C210.232 65.667 211.447 77.3972 218.846 85.2611C220.31 86.8178 222.472 88.6608 223.65 89.357C227.501 91.6344 232.721 90.3156 235.146 86.4526C239.331 79.7877 235.398 65.2659 227.985 60.009C223.662 56.9446 219.315 56.9001 216.218 59.8885ZM170.8 91.0108C170.34 91.4247 168.937 92.9525 167.682 94.406C162.898 99.9442 161.861 104.801 164.145 110.981C166.687 117.86 165.739 122.47 159.987 131.188C156.118 137.053 154.392 141.785 154.472 146.311C154.552 150.922 157.125 155.507 161.009 157.96C166.647 161.524 174.51 162.25 183.38 160.027C187.024 159.114 188.951 158.253 194.457 155.076C201.784 150.849 205.588 147.735 211.899 140.795C215.227 137.135 216.032 136.513 220.027 134.506C223.064 132.981 226.234 131.888 230.091 131.038C241.993 128.414 248.942 123.088 251.782 114.412C253.428 109.382 253.054 105.943 250.354 101.267C248.39 97.8639 247.862 97.2956 245.649 96.1953C244.22 95.4853 241.527 94.8983 239.339 94.8208C237.24 94.7462 233.42 94.6171 230.85 94.5342C223.604 94.3002 217.635 92.4671 211.976 88.7386C209.333 86.9967 205.75 85.072 204.015 84.4611C197.802 82.2736 188.73 82.3862 182.024 84.733C179.344 85.671 172.44 89.5325 170.8 91.0108Z" fill="#184066"/>
<path fill-rule="evenodd" clip-rule="evenodd" d="M121.891 919.137C122.734 923.083 126.498 931.504 128.747 934.472C130.276 936.492 130.673 936.757 131.181 936.104C132.655 934.209 134.209 932.821 135.116 932.587C135.654 932.448 136.633 932.2 137.291 932.035C138.463 931.742 138.438 931.665 136.078 928.275C134.753 926.371 132.202 923.521 130.41 921.942C126.709 918.68 122.251 915.642 121.662 915.982C121.444 916.108 121.547 917.528 121.891 919.137ZM106.667 938.244C105.246 945.05 106.141 951.24 109.617 958.647C111.377 962.395 111.502 962.545 112.16 961.691C113.697 959.698 116.358 957.022 117.409 956.416C118.022 956.062 118.471 955.683 118.408 955.573C118.345 955.464 117.165 954.223 115.785 952.815C112.578 949.543 110.176 944.545 108.996 938.69C108.519 936.326 107.989 934.354 107.817 934.308C107.646 934.262 107.128 936.033 106.667 938.244ZM149.619 911.604C156.576 916.354 159.281 918.926 162.426 923.777L164.515 926.999L166.949 926.022C168.288 925.484 170.411 925.053 171.668 925.063L173.954 925.082L172.373 923.098C168.485 918.22 163.124 914.649 156.92 912.806C153.187 911.697 148.666 910.953 149.619 911.604ZM134.358 936.516C132.43 938.577 131.169 943.047 131.544 946.486C132.222 952.71 138.263 962.038 144.094 965.866C152.897 971.645 161.674 966.463 160.574 956.139C159.389 945.028 150.034 933.839 141.73 933.601C139.147 933.526 135.983 934.778 134.358 936.516ZM163.769 932.041C161.561 935.483 161.011 940.904 162.285 946.681C165.189 959.846 178.691 968.802 184.997 961.745C187.013 959.489 188.361 954.94 188.148 951.105C187.37 937.077 179.572 926.687 170.491 927.582C167.183 927.909 165.857 928.788 163.769 932.041ZM100.498 971.584C99.0594 978.477 100.203 985.611 103.726 991.712C105.5 994.785 105.626 994.896 105.951 993.687C106.409 991.988 108.346 989.499 109.913 988.594L111.174 987.866L109.134 985.07C106.696 981.731 103.497 974.378 102.661 970.192C102.33 968.533 101.895 967.272 101.695 967.387C101.494 967.503 100.956 969.392 100.498 971.584ZM115.799 960.49C114.401 962.279 113.685 967.886 114.428 971.239C115.733 977.128 120.361 983.744 125.574 987.173C128.691 989.223 133.884 990.321 136.789 989.544C148.431 986.431 140.921 964.874 125.981 958.518C122.503 957.039 117.784 957.952 115.799 960.49ZM183.715 923.561C183.792 923.693 184.731 924.368 185.803 925.062C189.477 927.439 192.684 931.183 195.372 936.234L197.891 940.966L199.231 940.192C200.855 939.253 202.589 939.128 205.333 939.752L207.4 940.222L205.007 936.856C200.253 930.17 195.204 925.787 190.384 924.161C188.201 923.425 183.387 922.991 183.715 923.561ZM108.742 993.05C106.127 995.902 106.357 999.51 109.505 1005C112.004 1009.35 115.104 1012.71 119.408 1015.71C124.91 1019.55 129.594 1020.29 133.604 1017.94C140.025 1014.19 140.452 1006.28 134.621 999.109C127.649 990.53 113.987 987.332 108.742 993.05ZM198.218 943.889C192.232 949.667 193.447 961.397 200.846 969.261C202.31 970.818 204.472 972.661 205.65 973.357C209.501 975.634 214.721 974.316 217.146 970.453C221.331 963.788 217.398 949.266 209.985 944.009C205.662 940.945 201.315 940.9 198.218 943.889ZM152.8 975.011C152.34 975.425 150.937 976.953 149.682 978.406C144.898 983.944 143.861 988.801 146.145 994.981C148.687 1001.86 147.739 1006.47 141.987 1015.19C138.118 1021.05 136.392 1025.78 136.472 1030.31C136.552 1034.92 139.125 1039.51 143.009 1041.96C148.647 1045.52 156.51 1046.25 165.38 1044.03C169.024 1043.11 170.951 1042.25 176.457 1039.08C183.784 1034.85 187.588 1031.73 193.899 1024.8C197.227 1021.14 198.032 1020.51 202.027 1018.51C205.064 1016.98 208.234 1015.89 212.091 1015.04C223.993 1012.41 230.942 1007.09 233.782 998.412C235.428 993.382 235.054 989.943 232.354 985.267C230.39 981.864 229.862 981.296 227.649 980.195C226.22 979.485 223.527 978.898 221.339 978.821C219.24 978.746 215.42 978.617 212.85 978.534C205.604 978.3 199.635 976.467 193.976 972.739C191.333 970.997 187.75 969.072 186.015 968.461C179.802 966.274 170.73 966.386 164.024 968.733C161.344 969.671 154.44 973.533 152.8 975.011Z" fill="#184066"/>
<path fill-rule="evenodd" clip-rule="evenodd" d="M204.044 471.293C201.048 473.996 195.637 481.467 194.191 484.898C193.207 487.232 193.176 487.709 193.996 487.822C196.374 488.152 198.353 488.803 199.009 489.471C199.398 489.868 200.103 490.592 200.575 491.079C201.414 491.947 201.468 491.888 203.224 488.148C204.21 486.049 205.403 482.415 205.875 480.074C206.85 475.237 207.251 469.858 206.662 469.518C206.444 469.392 205.266 470.191 204.044 471.293ZM179.885 467.662C173.281 469.835 168.367 473.705 163.691 480.419C161.325 483.816 161.257 484 162.326 484.143C164.821 484.477 168.469 485.445 169.519 486.051C170.132 486.405 170.685 486.605 170.748 486.495C170.812 486.386 171.296 484.743 171.825 482.845C173.055 478.431 176.182 473.852 180.663 469.902C182.473 468.308 183.915 466.862 183.869 466.691C183.823 466.519 182.03 466.956 179.885 467.662ZM224.433 491.54C223.797 499.94 222.922 503.568 220.294 508.718L218.548 512.138L220.611 513.757C221.746 514.647 223.182 516.271 223.801 517.365L224.928 519.353L225.855 516.993C228.136 511.187 228.547 504.758 227.041 498.464C226.136 494.677 224.52 490.39 224.433 491.54ZM195.227 490.779C192.478 490.141 187.977 491.283 185.185 493.328C180.135 497.027 175.077 506.923 174.677 513.886C174.074 524.399 182.95 529.41 191.341 523.295C200.371 516.713 205.384 503.017 201.438 495.706C200.211 493.432 197.545 491.318 195.227 490.779ZM213.808 514.013C209.723 513.821 204.754 516.056 200.388 520.048C190.438 529.145 189.433 545.316 198.698 547.249C201.66 547.867 206.273 546.759 209.487 544.657C221.248 536.97 226.346 525.021 221.031 517.605C219.094 514.903 217.669 514.194 213.808 514.013ZM147.928 478.99C141.239 481.19 135.632 485.748 132.11 491.849C130.336 494.922 130.303 495.087 131.513 494.764C133.212 494.311 136.337 494.744 137.904 495.649L139.166 496.377L140.566 493.212C142.239 489.431 147.008 482.984 150.215 480.167C151.485 479.051 152.361 478.043 152.161 477.928C151.96 477.812 150.055 478.29 147.928 478.99ZM165.186 486.694C162.938 486.377 157.723 488.561 155.191 490.881C150.744 494.956 147.328 502.272 146.965 508.501C146.748 512.225 148.394 517.271 150.519 519.399C159.036 527.925 173.95 510.643 171.985 494.526C171.527 490.774 168.376 487.144 165.186 486.694ZM231.126 527.047C231.05 527.179 230.935 528.33 230.869 529.605C230.648 533.976 229.009 538.625 225.979 543.479L223.14 548.025L224.481 548.799C226.105 549.736 227.081 551.176 227.913 553.864L228.539 555.889L230.257 552.133C233.671 544.673 234.942 538.109 233.94 533.122C233.486 530.864 231.454 526.477 231.126 527.047ZM133.459 496.863C129.682 496.024 126.673 498.027 123.496 503.496C120.972 507.839 119.618 512.201 119.169 517.429C118.595 524.113 120.299 528.539 124.332 530.84C130.791 534.525 137.854 530.941 141.152 522.304C145.095 511.976 141.034 498.546 133.459 496.863ZM220.773 549.77C212.775 547.475 203.224 554.392 200.113 564.732C199.497 566.779 198.982 569.573 198.968 570.941C198.921 575.415 202.674 579.276 207.232 579.445C215.096 579.736 225.705 569.069 226.552 560.021C227.044 554.745 224.909 550.958 220.773 549.77ZM171.111 525.998C170.523 525.807 168.498 525.356 166.611 524.995C159.423 523.621 154.699 525.152 150.489 530.22C145.802 535.861 141.336 537.345 130.91 536.723C123.896 536.304 118.935 537.175 115.055 539.508C111.103 541.883 108.418 546.403 108.235 550.993C107.968 557.658 111.271 564.831 117.631 571.401C120.243 574.1 121.953 575.338 127.458 578.519C134.782 582.75 139.38 584.487 148.546 586.483C153.38 587.536 154.32 587.921 158.056 590.377C160.896 592.245 163.427 594.444 166.092 597.36C174.315 606.355 182.402 609.71 191.335 607.831C196.514 606.742 199.306 604.699 202.006 600.022C203.971 596.619 204.199 595.878 204.045 593.412C203.946 591.819 203.108 589.193 202.081 587.26C201.096 585.404 199.298 582.032 198.084 579.765C194.664 573.373 193.267 567.286 193.667 560.522C193.854 557.362 193.729 553.296 193.39 551.488C192.178 545.014 187.545 537.213 182.159 532.579C180.007 530.728 173.211 526.679 171.111 525.998Z" fill="#184066"/>
<path fill-rule="evenodd" clip-rule="evenodd" d="M204.044 1355.29C201.048 1358 195.637 1365.47 194.191 1368.9C193.207 1371.23 193.176 1371.71 193.996 1371.82C196.374 1372.15 198.353 1372.8 199.009 1373.47C199.398 1373.87 200.103 1374.59 200.575 1375.08C201.414 1375.95 201.468 1375.89 203.224 1372.15C204.21 1370.05 205.403 1366.42 205.875 1364.07C206.85 1359.24 207.251 1353.86 206.662 1353.52C206.444 1353.39 205.266 1354.19 204.044 1355.29ZM179.885 1351.66C173.281 1353.83 168.367 1357.71 163.691 1364.42C161.325 1367.82 161.257 1368 162.326 1368.14C164.821 1368.48 168.469 1369.44 169.519 1370.05C170.132 1370.4 170.685 1370.6 170.748 1370.5C170.812 1370.39 171.296 1368.74 171.825 1366.84C173.055 1362.43 176.182 1357.85 180.663 1353.9C182.473 1352.31 183.915 1350.86 183.869 1350.69C183.823 1350.52 182.03 1350.96 179.885 1351.66ZM224.433 1375.54C223.797 1383.94 222.922 1387.57 220.294 1392.72L218.548 1396.14L220.611 1397.76C221.746 1398.65 223.182 1400.27 223.801 1401.36L224.928 1403.35L225.855 1400.99C228.136 1395.19 228.547 1388.76 227.041 1382.46C226.136 1378.68 224.52 1374.39 224.433 1375.54ZM195.227 1374.78C192.478 1374.14 187.977 1375.28 185.185 1377.33C180.135 1381.03 175.077 1390.92 174.677 1397.89C174.074 1408.4 182.95 1413.41 191.341 1407.29C200.371 1400.71 205.384 1387.02 201.438 1379.71C200.211 1377.43 197.545 1375.32 195.227 1374.78ZM213.808 1398.01C209.723 1397.82 204.754 1400.06 200.388 1404.05C190.438 1413.14 189.433 1429.32 198.698 1431.25C201.66 1431.87 206.273 1430.76 209.487 1428.66C221.248 1420.97 226.346 1409.02 221.031 1401.6C219.094 1398.9 217.669 1398.19 213.808 1398.01ZM147.928 1362.99C141.239 1365.19 135.632 1369.75 132.11 1375.85C130.336 1378.92 130.303 1379.09 131.513 1378.76C133.212 1378.31 136.337 1378.74 137.904 1379.65L139.166 1380.38L140.566 1377.21C142.239 1373.43 147.008 1366.98 150.215 1364.17C151.485 1363.05 152.361 1362.04 152.161 1361.93C151.96 1361.81 150.055 1362.29 147.928 1362.99ZM165.186 1370.69C162.938 1370.38 157.723 1372.56 155.191 1374.88C150.744 1378.96 147.328 1386.27 146.965 1392.5C146.748 1396.23 148.394 1401.27 150.519 1403.4C159.036 1411.92 173.95 1394.64 171.985 1378.53C171.527 1374.77 168.376 1371.14 165.186 1370.69ZM231.126 1411.05C231.05 1411.18 230.935 1412.33 230.869 1413.61C230.648 1417.98 229.009 1422.63 225.979 1427.48L223.14 1432.03L224.481 1432.8C226.105 1433.74 227.081 1435.18 227.913 1437.86L228.539 1439.89L230.257 1436.13C233.671 1428.67 234.942 1422.11 233.94 1417.12C233.486 1414.86 231.454 1410.48 231.126 1411.05ZM133.459 1380.86C129.682 1380.02 126.673 1382.03 123.496 1387.5C120.972 1391.84 119.618 1396.2 119.169 1401.43C118.595 1408.11 120.299 1412.54 124.332 1414.84C130.791 1418.53 137.854 1414.94 141.152 1406.3C145.095 1395.98 141.034 1382.55 133.459 1380.86ZM220.773 1433.77C212.775 1431.48 203.224 1438.39 200.113 1448.73C199.497 1450.78 198.982 1453.57 198.968 1454.94C198.921 1459.41 202.674 1463.28 207.232 1463.44C215.096 1463.74 225.705 1453.07 226.552 1444.02C227.044 1438.75 224.909 1434.96 220.773 1433.77ZM171.111 1410C170.523 1409.81 168.498 1409.36 166.611 1409C159.423 1407.62 154.699 1409.15 150.489 1414.22C145.802 1419.86 141.336 1421.35 130.91 1420.72C123.896 1420.3 118.935 1421.18 115.055 1423.51C111.103 1425.88 108.418 1430.4 108.235 1434.99C107.968 1441.66 111.271 1448.83 117.631 1455.4C120.243 1458.1 121.953 1459.34 127.458 1462.52C134.782 1466.75 139.38 1468.49 148.546 1470.48C153.38 1471.54 154.32 1471.92 158.056 1474.38C160.896 1476.24 163.427 1478.44 166.092 1481.36C174.315 1490.35 182.402 1493.71 191.335 1491.83C196.514 1490.74 199.306 1488.7 202.006 1484.02C203.971 1480.62 204.199 1479.88 204.045 1477.41C203.946 1475.82 203.108 1473.19 202.081 1471.26C201.096 1469.4 199.298 1466.03 198.084 1463.76C194.664 1457.37 193.267 1451.29 193.667 1444.52C193.854 1441.36 193.729 1437.3 193.39 1435.49C192.178 1429.01 187.545 1421.21 182.159 1416.58C180.007 1414.73 173.211 1410.68 171.111 1410Z" fill="#184066"/>
<path d="M275.125 176C348.125 247.5 349.625 343.499 275.125 440.5" stroke="#184066" stroke-width="7" stroke-dasharray="16 16"/>
<path d="M274.125 1073C347.125 1144.5 348.625 1240.5 274.125 1337.5" stroke="#184066" stroke-width="7" stroke-dasharray="16 16"/>
<path d="M88.2105 888.417C15.2102 816.917 13.7105 720.918 88.2102 623.918" stroke="#184066" stroke-width="7" stroke-dasharray="16 16"/>
</svg>
