<svg width="1195" height="190" viewBox="0 0 1195 190" fill="none" xmlns="http://www.w3.org/2000/svg">
<path d="M120 57.6555C207 -17.3444 279.5 -10.3413 354.5 57.6587" stroke="#184066" stroke-width="7" stroke-dasharray="16 16"/>
<path d="M846 57.6555C933 -17.3444 1005.5 -10.3413 1080.5 57.6587" stroke="#184066" stroke-width="7" stroke-dasharray="16 16"/>
<path d="M716.5 132.662C629.5 207.662 557 200.659 482 132.659" stroke="#184066" stroke-width="7" stroke-dasharray="16 16"/>
<path fill-rule="evenodd" clip-rule="evenodd" d="M87.6872 75.0884C85.2509 75.9694 80.233 79.1042 78.5495 80.7971C77.4039 81.9483 77.2712 82.2248 77.7346 82.4923C79.077 83.2677 80.1049 84.138 80.337 84.6958C80.4751 85.0274 80.7234 85.6303 80.8893 86.0357C81.184 86.7573 81.2305 86.7351 83.173 84.9339C84.2633 83.9231 85.8439 82.0479 86.6851 80.7673C88.4223 78.122 89.9465 75.0135 89.6756 74.6674C89.5756 74.5395 88.6806 74.7289 87.6872 75.0884ZM74.1129 67.0401C69.6466 66.7264 65.7855 67.8367 61.3873 70.6989C59.1619 72.1477 59.0777 72.2409 59.6822 72.5862C61.0938 73.3928 63.0434 74.8579 63.5264 75.4751C63.8084 75.8354 64.0913 76.0892 64.1551 76.0395C64.2191 75.9895 64.9008 75.1285 65.6704 74.1259C67.4595 71.7951 70.422 69.8274 74.0434 68.5648C75.5057 68.055 76.713 67.545 76.7264 67.4314C76.7399 67.3181 75.5638 67.142 74.1129 67.0401ZM95.0403 92.1208C92.6546 96.9722 91.2657 98.9219 88.4651 101.351L86.6049 102.964L87.4516 104.431C87.9176 105.238 88.3879 106.556 88.4971 107.359L88.6957 108.818L89.8136 107.637C92.563 104.732 94.344 101.001 94.9466 96.8826C95.3092 94.4053 95.367 91.4564 95.0403 92.1208ZM77.7644 84.5546C76.2738 83.5042 73.3103 83.0889 71.1537 83.6275C67.2513 84.6024 61.8656 89.2684 59.9642 93.3213C57.0938 99.4401 61.2031 104.588 67.6788 102.987C74.6475 101.264 80.9139 94.3217 80.3007 89.0034C80.1101 87.3494 79.0215 85.4399 77.7644 84.5546ZM83.3243 102.927C80.9281 101.818 77.4245 101.939 73.8613 103.255C65.742 106.254 61.2806 115.647 66.3569 119.056C67.98 120.145 71.002 120.609 73.425 120.139C82.2903 118.421 88.1903 112.542 86.7839 106.827C86.2712 104.745 85.5888 103.975 83.3243 102.927ZM52.3062 66.0084C47.7828 65.6907 43.3432 67.0417 39.7813 69.8198C37.9869 71.2194 37.9278 71.3092 38.728 71.4118C39.8522 71.5559 41.6165 72.5744 42.3375 73.4956L42.9175 74.2367L44.5105 72.6915C46.4132 70.8457 50.8027 68.1646 53.3922 67.2667C54.4182 66.9111 55.1818 66.5237 55.0899 66.4062C54.9977 66.2884 53.7449 66.1095 52.3062 66.0084ZM60.7827 74.8033C59.5145 74.0668 55.8764 74.0984 53.8089 74.8644C50.1775 76.2095 46.3893 79.7382 44.685 83.3621C43.6662 85.5291 43.4451 88.9373 44.2076 90.7232C47.2629 97.8786 60.3038 91.211 62.9767 81.1269C63.5988 78.7792 62.5821 75.8484 60.7827 74.8033ZM90.5639 114.913C90.4868 114.973 90.1431 115.631 89.7997 116.375C88.6238 118.926 86.5339 121.298 83.5642 123.453L80.7816 125.471L81.3984 126.259C82.1458 127.213 82.3853 128.309 82.2407 130.113L82.1317 131.473L84.0552 129.653C87.8768 126.038 90.204 122.436 90.7953 119.219C91.0632 117.763 90.8962 114.654 90.5639 114.913ZM39.3906 73.1368C37.333 71.7168 35.0561 72.1775 31.8513 74.6632C29.3059 76.6373 27.4549 78.9068 25.9384 81.9138C23.9996 85.7576 23.9615 88.8104 25.8227 91.164C28.8035 94.9335 33.8814 94.5174 37.9147 90.1731C42.7378 84.9781 43.5168 75.9846 39.3906 73.1368ZM78.95 125.935C74.7176 122.619 67.3569 124.415 63.0289 129.82C62.1721 130.89 61.1972 132.43 60.8621 133.242C59.7661 135.897 61.087 139.112 63.7713 140.323C68.4025 142.412 77.2911 138.638 79.9571 133.451C81.5112 130.427 81.139 127.65 78.95 125.935ZM54.9406 99.6711C54.6346 99.4142 53.5321 98.6521 52.4905 97.9777C48.5218 95.4081 45.3323 95.17 41.6058 97.1651C37.4577 99.3859 34.4336 99.1823 28.3505 96.2722C24.2578 94.3147 21.0845 93.6256 18.2084 94.0707C15.2785 94.5236 12.5949 96.564 11.3894 99.255C9.63881 103.162 9.90037 108.241 12.1333 113.706C13.0507 115.951 13.777 117.106 16.3079 120.342C19.6755 124.648 22.0096 126.803 27.0119 130.225C29.6498 132.029 30.1202 132.488 31.7667 134.862C33.0183 136.666 34.0062 138.594 34.9032 140.98C37.6708 148.344 41.7041 152.313 47.4922 153.369C50.848 153.981 53.0046 153.444 55.7349 151.314C57.7217 149.765 58.0352 149.379 58.5322 147.871C58.8529 146.898 58.9788 145.128 58.8266 143.726C58.6807 142.38 58.4111 139.932 58.2272 138.286C57.7089 133.643 58.3268 129.675 60.1808 125.741C61.0469 123.903 61.943 121.45 62.1724 120.289C62.9936 116.136 62.0863 110.358 59.9736 106.285C59.1293 104.657 56.0334 100.589 54.9406 99.6711Z" fill="#184066"/>
<path fill-rule="evenodd" clip-rule="evenodd" d="M469.173 99.3118C466.71 98.5087 460.823 97.8948 458.452 98.1941C456.84 98.3972 456.565 98.5335 456.765 99.0291C457.344 100.465 457.618 101.783 457.456 102.365C457.361 102.711 457.185 103.339 457.065 103.76C456.853 104.51 456.903 104.521 459.544 104.296C461.027 104.169 463.429 103.663 464.882 103.171C467.882 102.154 471 100.641 471 100.202C471 100.04 470.178 99.6391 469.173 99.3118ZM463.44 84.6266C460.114 81.6344 456.387 80.1362 451.156 79.6885C448.509 79.4624 448.385 79.484 448.648 80.1277C449.263 81.6309 449.896 83.9837 449.896 84.7669C449.896 85.2241 449.962 85.598 450.043 85.598C450.125 85.598 451.193 85.3385 452.418 85.0214C455.265 84.2844 458.813 84.5546 462.445 85.7855C463.912 86.2825 465.178 86.6226 465.258 86.5413C465.339 86.4604 464.521 85.5987 463.44 84.6266ZM464.464 117.253C459.592 119.61 457.295 120.292 453.59 120.485L451.13 120.613L450.892 122.29C450.761 123.212 450.319 124.539 449.91 125.239L449.167 126.511L450.776 126.267C454.734 125.668 458.439 123.823 461.453 120.948C463.267 119.218 465.131 116.93 464.464 117.253ZM455.516 100.673C454.989 98.9287 452.91 96.78 450.879 95.879C447.202 94.2487 440.081 94.6154 436.083 96.6405C430.048 99.698 430.111 106.28 436.201 108.999C442.755 111.924 451.975 110.305 454.771 105.737C455.641 104.317 455.961 102.143 455.516 100.673ZM448.567 118.568C447.363 116.221 444.527 114.163 440.908 113.01C432.66 110.383 423.352 115.043 425.25 120.849C425.857 122.705 427.953 124.927 430.152 126.046C438.197 130.142 446.472 129.135 448.888 123.767C449.768 121.811 449.705 120.785 448.567 118.568ZM446.893 70.4109C443.524 67.3803 439.192 65.7163 434.672 65.7163C432.395 65.7163 432.293 65.7507 432.86 66.3234C433.658 67.1279 434.42 69.0149 434.42 70.184L434.42 71.1245L436.628 70.8859C439.266 70.6008 444.378 71.1859 446.972 72.0699C448 72.4203 448.841 72.5844 448.841 72.4353C448.841 72.2858 447.964 71.3748 446.893 70.4109ZM448.148 82.5511C447.603 81.1914 444.717 78.9802 442.615 78.3131C438.924 77.1412 433.763 77.5935 430.185 79.4017C428.046 80.4831 425.77 83.0329 425.269 84.9089C423.264 92.4252 437.652 95.1863 445.977 88.8827C447.915 87.415 448.922 84.4807 448.148 82.5511ZM446.88 132.462C446.782 132.462 446.106 132.769 445.376 133.145C442.876 134.432 439.767 135.017 436.098 134.889L432.66 134.77L432.661 135.769C432.661 136.981 432.174 137.991 430.947 139.324L430.023 140.329L432.661 140.077C437.902 139.577 441.957 138.169 444.407 135.998C445.516 135.015 447.302 132.462 446.88 132.462ZM432.319 68.09C431.573 65.7064 429.495 64.67 425.436 64.659C422.213 64.6501 419.355 65.3009 416.305 66.7384C412.407 68.5757 410.494 70.958 410.51 73.9566C410.534 78.759 414.792 81.5521 420.649 80.6077C427.654 79.4783 433.814 72.8702 432.319 68.09ZM430.931 134.009C429.641 128.795 422.733 125.687 415.989 127.286C414.654 127.602 412.936 128.216 412.172 128.65C409.67 130.069 408.728 133.414 410.097 136.018C412.458 140.511 421.79 143 427.089 140.551C430.179 139.123 431.598 136.706 430.931 134.009ZM428.208 98.5566C428.126 98.1661 427.727 96.888 427.322 95.7164C425.779 91.2522 423.413 89.1043 419.246 88.386C414.608 87.5865 412.35 85.5675 409.351 79.5355C407.333 75.4775 405.258 72.9841 402.717 71.5672C400.129 70.1233 396.756 70.0818 394.146 71.4614C390.357 73.4641 387.431 77.6276 385.82 83.3063C385.159 85.6392 385.019 86.9954 385.018 91.101C385.016 96.5638 385.526 99.6966 387.358 105.468C388.324 108.511 388.411 109.162 388.245 112.044C388.118 114.235 387.708 116.361 386.943 118.793C384.583 126.297 385.313 131.904 389.223 136.293C391.49 138.838 393.521 139.74 396.986 139.74C399.507 139.74 399.992 139.629 401.313 138.746C402.166 138.176 403.357 136.859 404.102 135.661C404.817 134.511 406.114 132.416 406.984 131.005C409.439 127.028 412.373 124.281 416.26 122.321C418.076 121.405 420.295 120.022 421.192 119.249C424.401 116.48 427.249 111.37 428.096 106.861C428.434 105.06 428.504 99.9515 428.208 98.5566Z" fill="#184066"/>
<path fill-rule="evenodd" clip-rule="evenodd" d="M810.253 71.4516C807.943 72.6225 803.345 76.3443 801.881 78.2294C800.884 79.5115 800.786 79.802 801.279 80.0112C802.706 80.6175 803.832 81.3562 804.131 81.8816C804.308 82.1939 804.628 82.7622 804.843 83.1443C805.223 83.8247 805.267 83.797 806.975 81.7729C807.934 80.637 809.273 78.5834 809.952 77.2101C811.353 74.3731 812.487 71.1023 812.176 70.7918C812.061 70.6771 811.196 70.9739 810.253 71.4516ZM795.798 65.1148C791.327 65.3468 787.63 66.9185 783.614 70.2946C781.582 72.0033 781.51 72.106 782.152 72.3752C783.651 73.0041 785.765 74.2211 786.32 74.7749C786.644 75.0982 786.956 75.3156 787.013 75.2585C787.07 75.2012 787.642 74.2636 788.283 73.1749C789.775 70.6438 792.475 68.3303 795.915 66.6366C797.304 65.9527 798.44 65.2996 798.44 65.1852C798.439 65.0711 797.25 65.0394 795.798 65.1148ZM819.631 87.4624C817.855 92.568 816.715 94.6721 814.232 97.4236L812.582 99.2511L813.602 100.605C814.163 101.349 814.79 102.599 814.997 103.383L815.372 104.807L816.337 103.499C818.712 100.281 820.024 96.3613 820.119 92.2002C820.177 89.6972 819.874 86.7632 819.631 87.4624ZM801.56 82.0545C799.952 81.1933 796.96 81.1416 794.886 81.9386C791.131 83.3809 786.355 88.6674 784.963 92.9215C782.861 99.3439 787.568 103.954 793.8 101.577C800.506 99.0183 805.879 91.3656 804.621 86.1615C804.23 84.543 802.916 82.7802 801.56 82.0545ZM809.322 99.6136C806.808 98.8043 803.345 99.351 799.969 101.091C792.276 105.055 788.995 114.921 794.45 117.686C796.194 118.57 799.25 118.662 801.597 117.901C810.187 115.118 815.325 108.565 813.231 103.063C812.468 101.059 811.697 100.379 809.322 99.6136ZM774.028 66.7438C769.499 66.9788 765.258 68.8598 762.061 72.0506C760.451 73.6581 760.404 73.7544 761.21 73.7589C762.344 73.7651 764.219 74.5614 765.047 75.3881L765.714 76.0531L767.106 74.3256C768.769 72.2621 772.799 69.0669 775.259 67.8606C776.234 67.3829 776.945 66.9054 776.839 66.8C776.733 66.6943 775.468 66.6691 774.028 66.7438ZM783.515 74.4419C782.166 73.8652 778.559 74.3392 776.6 75.351C773.16 77.1279 769.831 81.0912 768.582 84.8953C767.835 87.1701 768.032 90.5798 769.007 92.2597C772.913 98.99 785.042 90.7856 786.464 80.4515C786.795 78.0455 785.428 75.2603 783.515 74.4419ZM817.97 110.629C817.901 110.698 817.64 111.393 817.39 112.174C816.535 114.849 814.75 117.457 812.065 119.957L809.55 122.299L810.258 123.006C811.117 123.862 811.488 124.92 811.565 126.729L811.623 128.092L813.31 126.051C816.661 121.998 818.531 118.14 818.726 114.875C818.814 113.397 818.269 110.332 817.97 110.629ZM762.079 75.3904C759.863 74.2313 757.659 74.9657 754.782 77.8227C752.496 80.0917 750.936 82.5695 749.798 85.7387C748.343 89.7896 748.678 92.8244 750.813 94.934C754.231 98.3128 759.221 97.2819 762.693 92.4793C766.846 86.7363 766.522 77.715 762.079 75.3904ZM807.789 122.982C803.183 120.206 796.096 122.884 792.46 128.775C791.741 129.941 790.961 131.588 790.727 132.435C789.964 135.204 791.667 138.234 794.479 139.109C799.331 140.619 807.693 135.792 809.706 130.32C810.879 127.129 810.171 124.418 807.789 122.982ZM780.752 99.8351C780.417 99.6173 779.23 98.9951 778.113 98.4524C773.861 96.3848 770.666 96.5365 767.211 98.9701C763.364 101.679 760.338 101.845 753.945 99.6965C749.644 98.2516 746.41 97.9536 743.61 98.7454C740.757 99.5513 738.343 101.903 737.475 104.721C736.214 108.811 737.094 113.821 739.977 118.974C741.162 121.09 742.024 122.148 744.931 125.052C748.799 128.916 751.379 130.771 756.761 133.559C759.6 135.029 760.123 135.427 762.047 137.583C763.509 139.222 764.725 141.014 765.907 143.274C769.553 150.247 774.04 153.695 779.914 154.039C783.32 154.238 785.395 153.442 787.845 150.997C789.628 149.217 789.892 148.796 790.201 147.239C790.4 146.234 790.309 144.462 789.987 143.089C789.678 141.771 789.112 139.374 788.728 137.762C787.647 133.217 787.776 129.204 789.136 125.073C789.771 123.143 790.361 120.599 790.447 119.42C790.755 115.197 789.149 109.573 786.555 105.787C785.518 104.274 781.949 100.613 780.752 99.8351Z" fill="#184066"/>
<path fill-rule="evenodd" clip-rule="evenodd" d="M1164.03 136.406C1163.49 133.875 1161.08 128.478 1159.63 126.578C1158.65 125.286 1158.4 125.116 1158.07 125.537C1157.11 126.756 1156.1 127.651 1155.52 127.803C1155.17 127.893 1154.54 128.055 1154.11 128.162C1153.36 128.353 1153.37 128.402 1154.89 130.573C1155.74 131.792 1157.38 133.615 1158.53 134.625C1160.91 136.711 1163.79 138.65 1164.17 138.431C1164.31 138.349 1164.24 137.438 1164.03 136.406ZM1173.9 124.107C1174.83 119.735 1174.27 115.764 1172.04 111.017C1170.91 108.616 1170.83 108.519 1170.41 109.069C1169.41 110.352 1167.68 112.076 1167 112.467C1166.61 112.696 1166.32 112.94 1166.36 113.01C1166.4 113.081 1167.16 113.874 1168.04 114.775C1170.11 116.868 1171.65 120.07 1172.4 123.826C1172.7 125.343 1173.04 126.607 1173.15 126.636C1173.26 126.665 1173.6 125.527 1173.9 124.107ZM1146.11 141.305C1141.63 138.271 1139.89 136.627 1137.87 133.52L1136.53 131.457L1134.95 132.09C1134.09 132.438 1132.71 132.72 1131.9 132.716L1130.43 132.709L1131.44 133.978C1133.94 137.101 1137.4 139.381 1141.4 140.55C1143.8 141.253 1146.72 141.72 1146.11 141.305ZM1156.02 125.279C1157.27 123.952 1158.09 121.08 1157.86 118.873C1157.43 114.879 1153.55 108.906 1149.8 106.462C1144.13 102.773 1138.45 106.119 1139.14 112.743C1139.88 119.872 1145.89 127.034 1151.25 127.167C1152.92 127.209 1154.96 126.399 1156.02 125.279ZM1137.02 128.219C1138.45 126.004 1138.82 122.524 1138.01 118.818C1136.17 110.374 1127.47 104.656 1123.38 109.2C1122.07 110.653 1121.19 113.576 1121.32 116.037C1121.79 125.04 1126.8 131.691 1132.67 131.096C1134.8 130.879 1135.66 130.311 1137.02 128.219ZM1177.96 102.693C1178.9 98.2651 1178.18 93.6881 1175.92 89.7802C1174.78 87.8115 1174.7 87.7406 1174.49 88.5174C1174.19 89.6087 1172.93 91.2112 1171.92 91.7957L1171.1 92.266L1172.41 94.0558C1173.98 96.1936 1176.03 100.906 1176.56 103.591C1176.77 104.655 1177.05 105.464 1177.17 105.389C1177.3 105.314 1177.66 104.101 1177.96 102.693ZM1168.05 109.848C1168.96 108.697 1169.43 105.096 1168.96 102.946C1168.13 99.1685 1165.16 94.9324 1161.8 92.7433C1159.8 91.4345 1156.45 90.7416 1154.57 91.2469C1147.04 93.2714 1151.84 107.092 1161.47 111.137C1163.72 112.079 1166.77 111.482 1168.05 109.848ZM1124.12 133.708C1124.07 133.623 1123.47 133.192 1122.78 132.749C1120.41 131.231 1118.35 128.835 1116.62 125.599L1115.01 122.568L1114.14 123.068C1113.09 123.674 1111.97 123.758 1110.2 123.364L1108.87 123.067L1110.41 125.222C1113.46 129.503 1116.71 132.305 1119.82 133.337C1121.22 133.805 1124.33 134.072 1124.12 133.708ZM1172.68 88.9324C1174.38 87.0959 1174.24 84.7808 1172.22 81.2667C1170.61 78.4755 1168.62 76.3299 1165.85 74.4121C1162.31 71.9605 1159.28 71.498 1156.69 73.0103C1152.54 75.4326 1152.24 80.5104 1155.99 85.1023C1160.47 90.5934 1169.28 92.6152 1172.68 88.9324ZM1114.8 120.692C1118.68 116.97 1117.93 109.443 1113.17 104.412C1112.22 103.416 1110.83 102.238 1110.07 101.794C1107.59 100.341 1104.22 101.199 1102.64 103.684C1099.93 107.972 1102.43 117.284 1107.21 120.642C1109.99 122.599 1112.8 122.618 1114.8 120.692ZM1144.2 100.612C1144.5 100.345 1145.41 99.3614 1146.22 98.4256C1149.32 94.8598 1150 91.7399 1148.54 87.7782C1146.91 83.3683 1147.54 80.4071 1151.27 74.7984C1153.78 71.0248 1154.91 67.9837 1154.87 65.0785C1154.82 62.119 1153.17 59.182 1150.67 57.6157C1147.04 55.3414 1141.97 54.893 1136.23 56.34C1133.88 56.9344 1132.63 57.4918 1129.07 59.5434C1124.33 62.2733 1121.87 64.2809 1117.78 68.7498C1115.62 71.1065 1115.1 71.5076 1112.52 72.805C1110.55 73.7912 1108.5 74.4996 1106.01 75.0541C1098.32 76.7653 1093.82 80.2003 1091.97 85.7754C1090.89 89.0077 1091.13 91.2144 1092.86 94.21C1094.12 96.3898 1094.46 96.7534 1095.89 97.4546C1096.81 97.9071 1098.54 98.2777 1099.96 98.3225C1101.31 98.3656 1103.78 98.4397 1105.44 98.4871C1110.11 98.6208 1113.96 99.7838 1117.61 102.164C1119.31 103.276 1121.62 104.504 1122.74 104.892C1126.75 106.282 1132.6 106.189 1136.94 104.667C1138.67 104.059 1143.14 101.565 1144.2 100.612Z" fill="#184066"/>
</svg>
