<svg width="77" height="76" viewBox="0 0 77 76" fill="none" xmlns="http://www.w3.org/2000/svg">
<g style="mix-blend-mode:multiply" opacity="0.3">
<path d="M36.0784 75.801C23.5148 73.9069 0.2822 59.7902 0.583507 30.5985C0.48368 23.5948 1.77532 16.759 4.22347 11.3349C6.67161 5.91072 10.1135 2.25878 13.9228 1.04368C18.5509 0.292555 23.2128 0.600846 27.7984 1.9612C28.2019 1.69375 28.6338 1.5972 29.0612 1.67874C43.0464 4.22813 56.7766 -6.43144 69.9339 6.91924C71.3936 8.1694 72.6923 9.9604 73.7461 12.1765C74.7998 14.3925 75.5852 16.9844 76.0514 19.7846C76.5176 22.5848 76.6543 25.5309 76.4526 28.4327C76.2509 31.3345 75.7153 34.1273 74.8805 36.6308C68.167 58.0229 49.7884 77.8776 36.0784 75.801Z" fill="#80C2B5"/>
</g>
</svg>
