<svg width="117" height="85" viewBox="0 0 117 85" fill="none" xmlns="http://www.w3.org/2000/svg">
<g style="mix-blend-mode:multiply" opacity="0.3">
<path d="M71.9528 150.641C46.6288 159.899 21.7082 134.656 7.96909 95.9112C4.40172 87.4103 2.002 77.4941 0.968111 66.9817C-0.0657833 56.4692 0.295818 45.6619 2.02304 35.4525C3.79483 27.757 6.57895 20.9635 10.1327 15.6641C13.6865 10.3646 17.9019 6.72014 22.4116 5.04851C35.9336 -0.628319 49.4646 4.21919 62.9717 6.8739C74.8111 2.2048 88.3384 -3.05084 100.219 3.25985C105.537 6.25165 110.109 12.5217 113.141 20.9819C116.173 29.442 117.475 39.5581 116.819 49.5747C116.637 73.0725 112.122 95.7852 103.992 114.099C95.8619 132.413 84.5841 145.275 71.9528 150.641Z" fill="#80C2B5"/>
</g>
</svg>
