<svg width="107" height="148" viewBox="0 0 107 148" fill="none" xmlns="http://www.w3.org/2000/svg">
<g style="mix-blend-mode:multiply" opacity="0.3">
<path d="M28.0584 143.179C18.2229 139.485 9.46551 129.435 3.42114 114.903C1.21096 108.286 0.242036 100.551 0.659063 92.8536C1.07609 85.1564 2.85672 77.9101 5.73496 72.1971C13.4685 56.9401 22.8277 44.6776 33.2482 36.1488C38.6915 31.0253 44.364 26.7435 50.2051 23.3491C57.0606 15.7439 64.4087 9.70223 72.0824 5.36142C82.2823 -0.503394 99.1027 -5.73865 104.988 16.3455C106.546 24.0928 107.079 32.3943 106.543 40.5823C106.007 48.7704 104.418 56.6165 101.903 63.4896C96.0783 82.693 88.5914 100.081 79.7278 114.992C72.9928 128.162 64.7122 138.427 55.4963 145.03C46.439 149.148 36.9214 148.506 28.0584 143.179Z" fill="#80C2B5"/>
</g>
</svg>
