<svg width="126" height="114" viewBox="0 0 126 114" fill="none" xmlns="http://www.w3.org/2000/svg">
<g style="mix-blend-mode:multiply" opacity="0.3">
<path d="M120.291 103.281C114.999 109.909 108.724 113.483 102.29 113.537C82.3839 115.252 62.4619 110.838 43.3711 100.485C34.0794 96.3188 25.0314 90.5375 16.3532 83.2214C10.3673 78.9327 5.12238 71.8265 1.16032 62.6371C-0.0128769 59.4001 1.45569 55.2145 2.77895 53.1421C16.0741 33.7977 32.1097 21.6311 49.0473 18.0371C58.55 10.2044 68.5894 4.71402 78.8974 1.71255C88.7242 -1.05709 99.3061 -1.97031 106.726 12.1089C114.789 27.5243 120.648 46.2772 123.793 66.7336C125.632 79.2453 126.304 94.1743 120.291 103.281Z" fill="#80C2B5"/>
</g>
</svg>
