<svg width="64" height="54" viewBox="0 0 64 54" fill="none" xmlns="http://www.w3.org/2000/svg">
<g style="mix-blend-mode:multiply" opacity="0.3">
<path d="M61.9764 38.5558C55.5006 58.9202 39.1025 54.4508 28.6221 50.3747C22.761 48.3505 17.0593 45.0313 11.6445 40.4917C10.1647 39.1434 7.7815 37.4751 6.93274 34.6742C6.84736 34.3974 6.77089 34.1118 6.70376 33.819C4.97177 31.8355 3.34165 29.5742 1.83305 27.0623C-0.0465549 23.8468 1.40132 17.678 3.5413 15.3746C4.02815 14.1432 4.67083 13.141 5.41554 12.4523C17.895 2.72028 31.541 -1.07014 45.0569 1.44124C50.8462 1.44398 56.4307 5.32278 60.7367 12.332C62.3351 16.0057 63.3044 20.4471 63.5247 25.1076C63.745 29.768 63.2067 34.4434 61.9764 38.5558Z" fill="#80C2B5"/>
</g>
</svg>
