<svg width="119" height="97" viewBox="0 0 119 97" fill="none" xmlns="http://www.w3.org/2000/svg">
<g style="mix-blend-mode:multiply" opacity="0.3">
<path d="M79.3182 96.5071C60.9278 98.0824 42.5545 92.8135 25.3321 81.0257C16.806 74.4637 4.47667 64.0984 0.844979 47.0024C-0.506969 38.845 -0.105283 30.0633 1.96939 22.4201C4.04407 14.7769 7.63817 8.83819 12.0301 5.79615C22.239 -3.34757 34.7242 0.398738 45.3903 4.46404C51.5792 6.86923 57.6945 9.85814 63.7113 13.4186C64.1839 12.9676 64.7092 12.7281 65.2433 12.7203C75.736 12.9205 86.1522 15.9816 96.1416 21.8006C104.332 26.6008 117.011 35.8079 118.097 54.3038C120.232 90.4371 93.1818 96.0559 79.3182 96.5071Z" fill="#80C2B5"/>
</g>
</svg>
